<?xml version="1.0" encoding="UTF-8" standalone="no"?>
<!DOCTYPE svg PUBLIC "-//W3C//DTD SVG 1.1//EN" "http://www.w3.org/Graphics/SVG/1.1/DTD/svg11.dtd">
<svg width="100%" height="100%" viewBox="0 0 40 48" version="1.1" xmlns="http://www.w3.org/2000/svg" xmlns:xlink="http://www.w3.org/1999/xlink" xml:space="preserve" xmlns:serif="http://www.serif.com/" style="fill-rule:evenodd;clip-rule:evenodd;stroke-linejoin:round;stroke-miterlimit:2;">
    <g transform="matrix(1,0,0,1,-11.273,-7.45365)">
        <g>
            <g id="g883">
                <g id="path865">
                    <path d="M18.851,21.771C18.1,21.502 17.342,20.776 17.064,20.115C16.926,19.724 16.942,19.406 17.122,19.177C17.366,18.851 17.872,18.745 18.745,18.835C20.058,18.949 21.306,19.006 22.889,19.079C23.321,19.104 23.794,19.12 24.292,19.145C21.747,18.019 20.278,17.187 19.316,16.387C18.712,15.898 17.921,14.087 18.402,13.378C18.688,12.953 19.251,12.986 20.083,13.459C21.102,14.055 23.394,15.205 25.189,16.102L24.879,15.768C23.664,14.462 22.399,13.116 21.787,11.868C21.159,10.563 21.176,8.948 21.845,8.483C22.016,8.353 22.481,8.149 23.093,8.81L23.68,9.446C25.45,11.363 29.577,15.865 30.491,16.706C31.853,17.962 32.473,19.006 33.158,21.184C33.281,21.567 33.379,22.016 33.485,22.489C33.631,23.101 33.786,23.761 33.998,24.422C34.545,23.166 36.242,20.49 40.989,19.773C40.19,18.549 40.834,17.391 41.062,16.983C41.323,16.518 41.609,16.534 41.723,16.567C41.911,16.616 42.033,16.795 42.033,17.024C42.033,17.88 42.604,18.451 42.612,18.451L43.983,19.422C44.464,19.226 45.932,18.826 47.131,20.409C47.441,20.49 48.665,20.727 49.521,19.879L50.019,19.773C50.117,19.805 50.304,19.96 50.231,20.384C50.125,20.988 49.717,22.407 48.469,22.554L48.241,22.587C47.898,22.611 47.841,22.685 47.841,22.685C47.841,22.685 47.816,22.783 48.004,23.068C48.518,23.9 48.477,24.716 47.89,25.319L47.751,25.45C47.498,25.678 47.237,25.915 47.343,26.788L47.433,27.244C47.523,27.677 47.621,28.134 47.433,28.501C47.221,28.949 45.687,29.904 44.611,29.904C44.439,29.904 44.276,29.879 44.138,29.83C42.62,29.235 42.425,27.603 42.4,27.049C40.744,26.16 40.85,25.254 40.948,24.381C40.965,24.202 40.989,24.006 40.997,23.819C40.646,23.802 40.336,23.688 40.084,23.468C39.627,23.052 39.521,22.424 39.521,22.293L39.725,21.853C39.945,21.665 40.312,21.641 40.777,21.755C41.356,21.902 41.585,21.812 41.585,21.812L41.837,22.309C41.772,22.334 41.43,22.497 40.638,22.293C40.263,22.195 40.084,22.261 40.067,22.285C40.075,22.35 40.165,22.791 40.467,23.044C40.655,23.215 40.916,23.272 41.234,23.231L41.519,23.19L41.56,23.484C41.585,23.835 41.552,24.161 41.511,24.447C41.421,25.303 41.348,25.866 42.824,26.616L42.988,26.698L42.979,26.869C42.979,26.951 42.939,28.745 44.366,29.292C45.059,29.569 46.829,28.558 46.976,28.24C47.082,28.044 47.001,27.693 46.927,27.359C46.895,27.187 46.854,27.008 46.838,26.853C46.683,25.686 47.123,25.287 47.417,25.018L47.531,24.912C48.045,24.398 47.841,23.778 47.572,23.362C47.482,23.223 47.205,22.791 47.384,22.424C47.564,22.065 48.061,22.024 48.224,22.016L48.428,21.983C49.203,21.893 49.529,21.037 49.668,20.49C48.461,21.404 46.968,20.923 46.911,20.906L46.829,20.874L46.772,20.8C45.598,19.145 44.178,19.936 44.113,19.968L43.958,20.05L42.294,18.851C42.229,18.802 41.65,18.223 41.527,17.301C41.152,17.978 40.875,18.859 41.715,19.748L42.155,20.05L41.837,20.507L41.446,20.229C35.41,20.996 34.374,25.001 34.333,25.164L34.317,25.164C34.847,26.437 35.671,27.644 37.196,28.501L36.935,28.998C34.088,27.408 33.46,24.618 32.995,22.587C32.889,22.122 32.791,21.69 32.677,21.322C32.033,19.267 31.445,18.272 30.173,17.097C29.235,16.241 25.091,11.73 23.329,9.805L22.742,9.168L22.22,8.916C21.902,9.136 21.747,10.384 22.334,11.591C22.913,12.766 24.145,14.087 25.336,15.36C25.735,15.776 26.119,16.208 26.486,16.624C26.412,16.771 26.315,16.958 26.209,17.179C24.414,16.298 21.159,14.666 19.871,13.932C19.308,13.598 18.99,13.565 18.908,13.679C18.655,14.046 19.242,15.539 19.716,15.939C20.743,16.795 22.424,17.684 25.499,19.022C25.425,19.242 25.368,19.495 25.311,19.732C24.438,19.691 23.623,19.658 22.913,19.618C21.331,19.544 20.074,19.503 18.737,19.365C17.872,19.283 17.652,19.438 17.603,19.503L17.627,19.903C17.831,20.45 18.459,21.037 19.063,21.249C19.585,21.437 22.326,21.51 25.026,21.437C25.009,21.698 25.009,21.967 25.001,22.236C23.672,22.505 20.703,23.101 19.324,23.468C18.737,23.623 18.639,23.819 18.631,23.867C18.606,23.973 18.688,24.137 18.867,24.3C19.267,24.683 19.626,24.936 20.8,24.789L21.322,24.724C22.383,24.593 23.411,24.455 25.197,24.128C25.246,24.365 25.27,24.602 25.336,24.83L25.368,24.92C24.373,25.425 22.611,26.331 21.274,27.147L20.996,27.367C20.996,27.367 21.037,27.579 21.853,27.864C22.383,28.06 23.737,27.652 24.463,27.432C25.115,27.236 25.735,27.032 26.257,26.861C26.404,27.089 26.551,27.302 26.706,27.514C25.841,28.068 24.341,29.088 23.729,29.675C23.827,29.814 24.324,30.083 25.368,29.806C26.282,29.569 26.861,29.292 27.522,28.966L27.897,28.794L28.354,29.194L28.313,29.218C28.231,29.422 27.938,30.067 26.828,31.592C26.804,31.641 26.959,31.723 27.31,31.69C27.97,31.608 28.868,31.111 29.455,29.993L29.92,30.271C29.202,31.633 28.028,32.261 27.13,32.261C26.714,32.261 26.404,32.122 26.29,31.878C26.233,31.763 26.176,31.535 26.38,31.258C26.943,30.475 27.277,29.953 27.489,29.602C26.91,29.871 26.331,30.132 25.491,30.352C25.115,30.442 24.797,30.491 24.52,30.491C23.802,30.491 23.37,30.214 23.207,29.92C23.093,29.708 23.117,29.471 23.264,29.324C23.664,28.917 24.52,28.297 25.319,27.75C25.091,27.824 24.846,27.889 24.602,27.97C23.582,28.28 22.783,28.476 22.203,28.476C21.983,28.476 21.796,28.452 21.641,28.395C20.825,28.101 20.433,27.783 20.417,27.383C20.393,26.918 20.923,26.673 20.988,26.641C21.983,26.029 23.239,25.36 24.226,24.846C23.019,25.058 22.195,25.156 21.347,25.27L20.825,25.336C20.572,25.368 20.344,25.376 20.148,25.376C19.234,25.376 18.835,25.067 18.443,24.691C18.027,24.283 18.003,23.933 18.06,23.721C18.158,23.354 18.525,23.084 19.153,22.913C20.115,22.668 21.812,22.301 23.223,22.016L22.921,22.016C21.061,22.016 19.348,21.942 18.851,21.771ZM50.329,37.726C50.541,38.403 50.835,39.325 50.5,40.198C50.247,40.883 50.125,41.862 50.125,41.87L50.068,42.31L49.709,42.074C49.326,41.829 47.368,40.565 47.221,39.643C47.188,39.431 47.237,39.252 47.36,39.097C48.322,37.906 47.254,36.168 46.952,35.72C46.56,35.72 45.443,35.728 44.823,35.752L44.823,35.728C44.382,36.299 43.746,36.617 42.996,36.617L42.645,36.584C43.322,37.188 44.089,37.8 44.399,37.987C45.002,38.362 45.271,39.782 44.864,40.483C44.513,41.079 43.297,42.408 42.523,43.102C42.196,43.379 41.739,43.518 41.275,43.591L46.642,43.591L46.56,49.627C46.552,49.693 46.43,51.047 45.557,52.009C44.072,53.641 42.824,54.473 41.87,54.473L41.682,54.473C40.712,54.473 39.472,53.641 37.995,52.009C37.131,51.055 37,49.701 36.992,49.644L36.902,43.591L39.725,43.591L39.684,43.583C39.341,43.485 37.147,42.547 36.894,42.441L36.429,42.245L36.853,41.96C37.522,41.487 39.17,40.418 39.774,40.663C40.01,40.761 40.149,40.891 40.263,40.997C40.402,41.136 40.491,41.209 40.736,41.226L40.744,41.226C40.916,41.226 41.266,40.589 41.495,39.774C40.818,39.553 38.999,38.868 37.889,37.734L37.889,37.743C37.873,37.751 35.671,38.909 32.848,39.929C32.538,40.043 32.473,40.288 32.392,40.712C32.318,41.111 32.22,41.617 31.682,41.829C31.25,42.009 30.719,41.821 29.977,41.552L29.488,41.389C28.55,44.554 30.825,48.2 31.804,49.782C31.967,50.043 32.098,50.239 32.163,50.37C32.628,51.242 33.02,51.838 33.02,51.846L33.289,52.254L32.808,52.278C32.171,52.327 31.062,52.376 30.124,52.376C29.39,52.376 28.762,52.335 28.574,52.229C27.873,51.813 27.962,51.153 28.036,50.574C28.085,50.239 28.125,49.897 28.044,49.578C27.244,46.405 25.279,45.924 25.262,45.924L24.928,45.875L25.042,45.557C25.05,45.533 25.996,42.8 25.368,41.43C25.067,41.56 24.846,41.674 24.757,41.731L24.675,41.846C22.538,44.749 21.991,46.25 21.918,47.001C21.804,48.2 22.154,49.268 22.758,50.614C23.15,51.487 23.672,52.14 23.68,52.14L24.022,52.572L23.484,52.605C22.717,52.654 21.657,52.694 20.768,52.694C19.985,52.694 19.34,52.67 19.161,52.548C18.19,51.928 18.639,50.492 18.941,49.538C19.764,46.919 17.978,44.056 17.962,44.032L17.823,43.811L18.035,43.656C18.394,43.395 19.373,42.62 19.593,42.229C19.903,41.658 19.936,41.283 19.691,40.973C17.016,37.71 18.353,33.77 18.745,32.791C17.358,31.821 15.49,31.829 14.495,32.848C13.492,33.868 13.728,35.581 15.131,37.433C15.751,38.248 15.955,39.243 15.686,40.1C15.449,40.875 14.854,41.454 14.014,41.715C13.051,42.017 13.076,43.444 13.076,43.461L13.1,44.219L12.594,43.656C11.249,42.139 11.624,41.03 11.95,40.059C12.023,39.863 12.089,39.668 12.138,39.472C12.203,39.227 12.187,39.048 12.097,38.942C11.917,38.738 11.485,38.746 11.371,38.754L11.273,38.207C11.281,38.199 11.942,38.02 12.236,37.482C12.399,37.196 12.415,36.821 12.301,36.413C12.236,36.193 12.064,35.646 11.934,35.353C11.273,33.868 11.607,32.065 12.774,30.891C13.557,30.116 15.841,28.517 20.417,30.638C20.841,30.825 21.094,30.801 21.583,30.491L21.877,30.964C21.322,31.323 20.866,31.453 20.189,31.144C17.187,29.749 14.626,29.806 13.157,31.29C12.154,32.302 11.868,33.843 12.431,35.124C12.562,35.426 12.725,35.956 12.815,36.25C12.986,36.813 12.945,37.327 12.7,37.759C12.562,37.995 12.382,38.191 12.195,38.338L12.497,38.566C12.725,38.819 12.782,39.17 12.668,39.611C12.611,39.823 12.546,40.027 12.472,40.23C12.203,41.014 11.95,41.756 12.594,42.751C12.717,42.18 13.035,41.43 13.842,41.177C14.511,40.973 14.976,40.524 15.156,39.929C15.368,39.252 15.188,38.452 14.691,37.783C13.108,35.687 12.888,33.697 14.095,32.457C15.352,31.192 17.611,31.209 19.251,32.489L19.43,32.62L19.332,32.824C19.308,32.865 17.285,37.163 20.107,40.606C20.711,41.356 20.221,42.221 20.058,42.498C19.805,42.955 18.957,43.64 18.549,43.95C18.981,44.709 20.229,47.245 19.463,49.693C19.193,50.533 18.835,51.675 19.446,52.066C19.683,52.164 21.314,52.14 22.929,52.066C22.734,51.773 22.473,51.348 22.244,50.843C21.6,49.423 21.225,48.265 21.355,46.936C21.486,45.753 22.448,43.917 24.226,41.511L24.332,41.364L24.414,41.283C24.496,41.234 26.217,40.133 28.174,40.459C28.949,40.589 29.618,40.834 30.157,41.022C30.736,41.226 31.233,41.405 31.478,41.307C31.723,41.209 31.78,40.981 31.853,40.598C31.943,40.165 32.049,39.627 32.669,39.407C35.092,38.526 37.057,37.539 37.53,37.302C37.278,36.943 37.074,36.552 37.008,36.119L37.555,36.038C37.84,38.15 41.87,39.309 41.911,39.317L42.164,39.39L42.098,39.659C41.943,40.304 41.503,41.797 40.752,41.797L40.712,41.788C40.271,41.764 40.059,41.568 39.896,41.421L39.578,41.193C39.407,41.136 38.501,41.552 37.596,42.139C38.534,42.531 39.651,42.996 39.847,43.053C40.116,43.134 41.601,43.2 42.172,42.694C42.89,42.041 44.089,40.744 44.399,40.198C44.684,39.725 44.415,38.656 44.129,38.477C43.624,38.167 41.283,36.299 40.973,35.565L41.478,35.336C41.536,35.483 41.739,35.711 42.009,35.981C42.164,35.964 42.359,35.989 42.588,36.03C43.713,36.233 44.293,35.671 44.578,35.165C45.1,34.259 45.002,32.881 44.374,32.098C43.599,31.127 43.803,30.532 43.836,30.475L44.342,30.67C44.342,30.679 44.236,31.046 44.798,31.747L45.002,32.122C45.475,32.065 46.177,32.09 46.707,32.106C46.96,32.114 47.164,32.131 47.294,32.114L47.327,32.114C48.004,32.114 48.665,32.718 49.056,33.697C49.399,34.545 49.75,35.736 50.109,36.992L50.215,37.375L50.329,37.726ZM49.986,40.01C50.247,39.309 50.003,38.526 49.807,37.914L49.693,37.547L49.587,37.163C49.219,35.915 48.885,34.749 48.542,33.917C48.249,33.166 47.768,32.685 47.327,32.685L47.221,32.685C47.09,32.685 46.903,32.677 46.683,32.669C46.25,32.661 45.696,32.644 45.271,32.669C45.533,33.485 45.492,34.423 45.141,35.198C45.932,35.173 47.05,35.173 47.099,35.173L47.237,35.173L47.319,35.279C47.392,35.377 49.187,37.759 47.784,39.464L47.768,39.562C47.841,39.994 48.82,40.81 49.652,41.372C49.717,41.005 49.823,40.467 49.986,40.01ZM46.095,44.17L37.473,44.17L37.563,49.644C37.563,49.644 37.677,50.835 38.42,51.642C39.757,53.127 40.924,53.942 41.699,53.942L41.886,53.942C42.425,53.942 43.444,53.543 45.165,51.65C45.908,50.843 46.014,49.635 46.022,49.619L46.095,44.17ZM39.031,47.906C38.803,47.637 38.778,47.278 38.77,47.237L38.746,45.639L41.242,45.639L41.217,47.221C41.209,47.278 41.177,47.637 40.956,47.898L40.899,47.971C40.622,48.322 40.336,48.632 40.01,48.632L39.986,48.632C39.635,48.632 39.325,48.257 39.105,47.988L39.031,47.906ZM40.679,46.193L39.301,46.185L39.317,47.205L39.447,47.523L39.521,47.613L39.986,48.061L40.01,48.061L40.483,47.604L40.54,47.531L40.663,47.197L40.679,46.193ZM42.62,47.906C42.4,47.637 42.359,47.286 42.335,47.245L42.319,45.639L44.815,45.639L44.79,47.221C44.79,47.278 44.766,47.637 44.529,47.906L44.48,47.963C44.195,48.314 43.917,48.632 43.591,48.632L43.567,48.632C43.208,48.632 42.906,48.257 42.686,47.98L42.62,47.906ZM44.268,46.193L42.89,46.185L42.906,47.205L43.036,47.523L43.102,47.613L43.567,48.061L43.591,48.061L44.064,47.604L44.121,47.531L44.252,47.188L44.268,46.193ZM40.671,51.03L40.622,49.423L43.126,49.423L43.11,51.014C43.102,51.063 43.061,51.422 42.841,51.683L42.784,51.748C42.563,52.025 42.253,52.401 41.903,52.401L41.878,52.401C41.527,52.401 41.234,52.042 41.005,51.773L40.932,51.691C40.704,51.422 40.671,51.063 40.671,51.03ZM42.58,49.986L41.201,49.978L41.226,50.998L41.348,51.316L41.421,51.414L41.878,51.846L41.903,51.846L42.368,51.397L42.425,51.324L42.563,50.981L42.58,49.986ZM31.331,50.109C30.303,48.461 27.938,44.652 28.949,41.25C28.672,41.168 28.395,41.095 28.076,41.038C27.261,40.899 26.478,41.054 25.874,41.25C26.437,42.572 25.874,44.709 25.638,45.484C26.421,45.785 27.897,46.846 28.566,49.456C28.68,49.888 28.623,50.304 28.574,50.663C28.501,51.259 28.476,51.552 28.843,51.764C29.08,51.871 30.711,51.854 32.294,51.764C32.131,51.503 31.91,51.12 31.666,50.655C31.6,50.533 31.486,50.353 31.331,50.109ZM30.434,14.34C30.524,14.528 30.891,15.082 31.356,15.792C30.744,15.303 30.173,14.952 30.05,14.878L29.904,14.609C29.659,14.079 29.634,13.345 29.863,12.847C29.993,12.554 30.173,12.391 30.393,12.358C30.785,12.301 31.152,12.676 31.421,13.01C32.033,13.777 32.848,14.642 33.77,15.621C32.799,13.492 32.392,12.26 32.163,11.42C31.935,10.604 32.22,10.009 32.457,9.642C32.693,9.266 32.979,8.916 33.362,8.965C33.778,9.022 33.966,9.544 34.088,9.976C34.374,11.004 35.483,13.524 36.136,14.968C36.119,14.666 36.111,14.365 36.095,14.046C36.013,12.358 35.924,10.433 36.176,9.405C36.429,8.328 37.261,7.407 37.873,7.456C38.053,7.472 38.46,7.586 38.485,8.328C38.509,8.728 38.566,9.764 38.648,10.971C38.778,13.1 38.95,15.751 38.958,16.445C38.958,17.179 38.982,17.684 39.015,18.255C39.023,18.5 39.04,18.753 39.048,19.047L38.501,19.071C38.485,18.777 38.485,18.516 38.469,18.28C38.436,17.701 38.411,17.195 38.411,16.445C38.403,15.768 38.24,13.125 38.101,11.004C38.028,9.788 37.963,8.744 37.946,8.345C37.938,8.157 37.889,8.018 37.832,8.01L37.816,8.01C37.555,8.01 36.935,8.638 36.723,9.536C36.486,10.49 36.576,12.366 36.658,14.014C36.682,14.691 36.715,15.319 36.723,15.849C36.503,15.857 36.258,15.89 35.981,15.931C35.483,14.846 33.933,11.42 33.566,10.123C33.411,9.568 33.289,9.503 33.289,9.503C33.289,9.503 33.175,9.536 32.93,9.927C32.718,10.245 32.538,10.653 32.702,11.249C32.963,12.17 33.436,13.598 34.708,16.273C34.455,16.363 34.211,16.445 33.958,16.583C32.775,15.352 31.747,14.275 31.005,13.337C30.646,12.896 30.507,12.88 30.491,12.88L30.385,13.043C30.254,13.345 30.23,13.916 30.434,14.34ZM45.557,22.579C45.557,22.579 45.174,23.223 44.317,22.342C43.852,21.869 43.142,22.024 43.142,22.024C44.138,21.314 44.35,21.592 44.741,22.138C45.214,22.774 45.557,22.579 45.557,22.579ZM42.767,24.031C42.767,24.031 42.947,23.402 43.542,23.354C43.926,23.329 44.276,23.492 44.391,24.12C44.546,24.944 44.464,25.287 44.464,25.287C44.464,25.287 44.138,25.018 43.836,24.854L43.999,24.479C43.999,24.186 43.779,23.949 43.526,23.949C43.273,23.949 43.077,24.177 43.069,24.455C42.873,24.259 42.767,24.031 42.767,24.031ZM45.043,28.321L44.741,28.101C44.741,28.093 45.027,27.693 44.872,27.277L44.733,27.106L44.448,27.138L44.276,26.804C44.301,26.788 44.594,26.649 44.872,26.755C44.978,26.796 45.133,26.902 45.223,27.147C45.451,27.75 45.068,28.297 45.043,28.321Z" style="fill:white;"/>
                </g>
            </g>
        </g>
    </g>
</svg>
