<?xml version="1.0" encoding="UTF-8" standalone="no"?>
<svg
   xmlns:dc="http://purl.org/dc/elements/1.1/"
   xmlns:cc="http://creativecommons.org/ns#"
   xmlns:rdf="http://www.w3.org/1999/02/22-rdf-syntax-ns#"
   xmlns:svg="http://www.w3.org/2000/svg"
   xmlns="http://www.w3.org/2000/svg"
   xmlns:sodipodi="http://sodipodi.sourceforge.net/DTD/sodipodi-0.dtd"
   xmlns:inkscape="http://www.inkscape.org/namespaces/inkscape"
   inkscape:version="1.0beta1 (32d4812, 2019-09-19)"
   height="64"
   width="278.15448"
   sodipodi:docname="logo-wit-278x64.svg"
   xml:space="preserve"
   overflow="visible"
   viewBox="0 0 278.15448 64"
   y="0px"
   x="0px"
   id="Layer_1"
   version="1.2"><metadata
   id="metadata890">
  <rdf:RDF>
    <cc:Work
       rdf:about="">
      <dc:format>image/svg+xml</dc:format>
      <dc:type
         rdf:resource="http://purl.org/dc/dcmitype/StillImage" />
      <dc:title></dc:title>
    </cc:Work>
  </rdf:RDF>
</metadata>
<defs
   id="defs888" />
<sodipodi:namedview
   inkscape:current-layer="Layer_1"
   inkscape:window-maximized="0"
   inkscape:window-y="413"
   inkscape:window-x="0"
   inkscape:cy="53.452009"
   inkscape:cx="103.5848"
   inkscape:zoom="3.959798"
   showgrid="false"
   id="namedview886"
   inkscape:window-height="907"
   inkscape:window-width="1600"
   inkscape:pageshadow="2"
   inkscape:pageopacity="0"
   guidetolerance="10"
   gridtolerance="10"
   objecttolerance="10"
   borderopacity="1"
   inkscape:document-rotation="0"
   bordercolor="#666666"
   pagecolor="#ffffff" />


<g
   transform="matrix(0.81570227,0,0,0.81570227,0,-0.62809075)"
   id="g883">
	<path
   inkscape:connector-curvature="0"
   id="path835"
   d="M 38.55,0.77 C 17.25,0.77 0,18.34 0,40 0,61.67 17.25,79.23 38.55,79.23 59.84,79.23 77.11,61.67 77.11,40 77.11,18.34 59.84,0.77 38.55,0.77 Z"
   fill="#FFFFFF" />

	<path
   inkscape:connector-curvature="0"
   id="path837"
   d="m 96.27,7.17 h 14.88 c 8.03,0 13.58,3.79 13.58,12.53 0,8.99 -4.76,12.94 -13.23,12.94 h -5.51 v 12.62 h -9.72 z m 9.72,17.48 h 1.65 c 3.52,0 6.98,0 6.98,-4.64 0,-4.8 -3.22,-4.86 -6.98,-4.86 h -1.65 z"
   fill="#FFFFFF" />

	<path
   inkscape:connector-curvature="0"
   id="path839"
   d="m 166.04,7.17 v 21.42 c 0,4.89 -0.2,9.74 -3.92,13.44 -3.12,3.13 -8.03,4.24 -12.4,4.24 -4.36,0 -9.27,-1.11 -12.39,-4.24 -3.73,-3.69 -3.93,-8.54 -3.93,-13.44 V 7.17 h 9.73 v 20.04 c 0,4.95 0.35,10.36 6.59,10.36 6.25,0 6.6,-5.41 6.6,-10.36 V 7.17 Z"
   fill="#FFFFFF" />

	<polygon
   id="polygon841"
   points="188.07,7.17 188.07,36.87 199.72,36.87 199.72,45.25 178.35,45.25 178.35,7.17 "
   fill="#FFFFFF" />

	<path
   inkscape:connector-curvature="0"
   id="path843"
   d="m 233.39,19.95 c -1.99,-2.74 -5.21,-4.2 -8.54,-4.2 -5.94,0 -9.95,4.65 -9.95,10.56 0,6.01 4.06,10.36 10.11,10.36 3.18,0 6.35,-1.56 8.39,-4.03 V 44.5 c -3.22,1.01 -5.56,1.76 -8.58,1.76 -5.2,0 -10.16,-2.03 -14.04,-5.61 -4.11,-3.78 -5.99,-8.74 -5.99,-14.4 0,-5.2 1.93,-10.2 5.51,-13.94 3.67,-3.83 8.97,-6.16 14.23,-6.16 3.12,0 6,0.71 8.88,1.92 v 11.88 z"
   fill="#FFFFFF" />

	<polygon
   id="polygon845"
   points="269.18,29.64 255.15,29.64 255.15,45.25 245.43,45.25 245.43,7.17 255.15,7.17 255.15,21.87 269.18,21.87 269.18,7.17 278.9,7.17 278.9,45.25 269.18,45.25 "
   fill="#FFFFFF" />

	<path
   inkscape:connector-curvature="0"
   id="path847"
   d="M 322.92,45.25 H 310.83 L 301.65,30.6 h -0.1 v 14.65 h -9.73 V 7.17 h 14.54 c 7.38,0 12.99,3.58 12.99,11.72 0,5.25 -2.87,9.8 -8.18,10.76 z M 301.55,24.24 h 0.94 c 3.18,0 6.75,-0.61 6.75,-4.75 0,-4.14 -3.57,-4.75 -6.75,-4.75 h -0.94 z"
   fill="#FFFFFF" />

	<rect
   id="rect849"
   height="38.080002"
   width="9.7200003"
   fill="#FFFFFF"
   y="7.1700001"
   x="331.28" />

	<g
   id="g863">
		<path
   inkscape:connector-curvature="0"
   id="path851"
   d="m 96.23,70.78 1.23,-0.74 c 0.87,1.6 1.87,2.39 3,2.39 0.49,0 0.94,-0.11 1.37,-0.34 0.43,-0.23 0.75,-0.53 0.97,-0.91 0.22,-0.38 0.33,-0.78 0.33,-1.21 0,-0.49 -0.16,-0.96 -0.49,-1.43 -0.45,-0.64 -1.28,-1.42 -2.48,-2.32 -1.21,-0.91 -1.96,-1.57 -2.25,-1.98 -0.51,-0.68 -0.77,-1.42 -0.77,-2.21 0,-0.63 0.15,-1.2 0.45,-1.72 0.3,-0.52 0.73,-0.93 1.27,-1.22 0.55,-0.3 1.14,-0.45 1.79,-0.45 0.68,0 1.32,0.17 1.91,0.51 0.59,0.34 1.22,0.96 1.88,1.87 l -1.18,0.89 c -0.54,-0.72 -1.01,-1.2 -1.39,-1.43 -0.38,-0.23 -0.8,-0.34 -1.25,-0.34 -0.58,0 -1.06,0.18 -1.43,0.53 -0.37,0.35 -0.56,0.79 -0.56,1.31 0,0.31 0.07,0.62 0.2,0.92 0.13,0.29 0.37,0.62 0.72,0.96 0.19,0.18 0.81,0.67 1.87,1.45 1.25,0.92 2.11,1.75 2.58,2.47 0.47,0.72 0.7,1.45 0.7,2.18 0,1.05 -0.4,1.96 -1.2,2.73 -0.8,0.77 -1.77,1.16 -2.91,1.16 -0.88,0 -1.68,-0.24 -2.39,-0.71 -0.7,-0.47 -1.36,-1.25 -1.97,-2.36 z"
   fill="#2B2523" />

		<path
   inkscape:connector-curvature="0"
   id="path853"
   d="M 141.6,60.42 V 59 h 7.93 v 1.42 h -3.23 v 13.06 h -1.48 V 60.42 Z"
   fill="#2B2523" />

		<path
   inkscape:connector-curvature="0"
   id="path855"
   d="m 186.93,59.01 h 1.45 v 8.74 c 0,1.04 0.02,1.68 0.06,1.94 0.07,0.57 0.24,1.05 0.5,1.43 0.26,0.38 0.67,0.71 1.21,0.96 0.54,0.26 1.09,0.39 1.64,0.39 0.48,0 0.94,-0.1 1.38,-0.31 0.44,-0.2 0.81,-0.49 1.1,-0.84 0.3,-0.36 0.51,-0.8 0.65,-1.31 0.1,-0.37 0.15,-1.12 0.15,-2.26 v -8.74 h 1.45 v 8.74 c 0,1.29 -0.13,2.34 -0.38,3.13 -0.25,0.8 -0.76,1.49 -1.52,2.08 -0.76,0.59 -1.68,0.89 -2.75,0.89 -1.17,0 -2.17,-0.28 -3,-0.84 -0.83,-0.56 -1.39,-1.3 -1.67,-2.21 -0.18,-0.56 -0.27,-1.58 -0.27,-3.05 z"
   fill="#2B2523" />

		<path
   inkscape:connector-curvature="0"
   id="path857"
   d="M 235.34,73.48 V 59.01 h 3 c 2.16,0 3.74,0.17 4.71,0.52 1.4,0.49 2.5,1.35 3.29,2.56 0.79,1.22 1.19,2.66 1.19,4.34 0,1.45 -0.31,2.73 -0.94,3.83 -0.63,1.1 -1.44,1.92 -2.44,2.44 -1,0.52 -2.4,0.79 -4.21,0.79 h -4.6 z m 1.39,-1.37 h 1.67 c 2,0 3.39,-0.13 4.16,-0.38 1.09,-0.35 1.95,-0.99 2.57,-1.91 0.62,-0.92 0.94,-2.05 0.94,-3.38 0,-1.4 -0.34,-2.59 -1.01,-3.58 -0.68,-0.99 -1.62,-1.67 -2.82,-2.03 -0.91,-0.28 -2.4,-0.41 -4.48,-0.41 h -1.02 v 11.69 z"
   fill="#2B2523" />

		<path
   inkscape:connector-curvature="0"
   id="path859"
   d="m 285.4,59.01 h 1.45 v 14.47 h -1.45 z"
   fill="#2B2523" />

		<path
   inkscape:connector-curvature="0"
   id="path861"
   d="m 332.32,58.64 c 2.19,0 4.03,0.73 5.5,2.19 1.48,1.46 2.22,3.26 2.22,5.4 0,2.12 -0.74,3.91 -2.21,5.39 -1.47,1.47 -3.27,2.21 -5.39,2.21 -2.15,0 -3.96,-0.73 -5.43,-2.2 -1.48,-1.47 -2.22,-3.25 -2.22,-5.33 0,-1.39 0.34,-2.68 1.01,-3.87 0.67,-1.19 1.59,-2.12 2.75,-2.79 1.17,-0.66 2.42,-1 3.77,-1 z m 0.07,1.41 c -1.07,0 -2.09,0.28 -3.04,0.84 -0.96,0.56 -1.71,1.31 -2.25,2.25 -0.54,0.95 -0.81,2 -0.81,3.16 0,1.72 0.6,3.17 1.79,4.36 1.19,1.18 2.63,1.78 4.31,1.78 1.12,0 2.16,-0.27 3.12,-0.82 0.96,-0.55 1.7,-1.29 2.24,-2.24 0.53,-0.94 0.8,-2 0.8,-3.15 0,-1.15 -0.27,-2.19 -0.8,-3.12 -0.54,-0.93 -1.29,-1.67 -2.26,-2.23 -0.98,-0.55 -2.01,-0.83 -3.1,-0.83 z"
   fill="#2B2523" />

	</g>

	<path
   inkscape:connector-curvature="0"
   id="path865"
   d="m 23.11,27.46 c 0.61,0.21 2.71,0.3 4.99,0.3 h 0.37 c -1.73,0.35 -3.81,0.8 -4.99,1.1 -0.77,0.21 -1.22,0.54 -1.34,0.99 -0.07,0.26 -0.04,0.69 0.47,1.19 0.48,0.46 0.97,0.84 2.09,0.84 0.24,0 0.52,-0.01 0.83,-0.05 l 0.64,-0.08 c 1.04,-0.14 2.05,-0.26 3.53,-0.52 -1.21,0.63 -2.75,1.45 -3.97,2.2 -0.08,0.04 -0.73,0.34 -0.7,0.91 0.02,0.49 0.5,0.88 1.5,1.24 0.19,0.07 0.42,0.1 0.69,0.1 0.71,0 1.69,-0.24 2.94,-0.62 0.3,-0.1 0.6,-0.18 0.88,-0.27 -0.98,0.67 -2.03,1.43 -2.52,1.93 -0.18,0.18 -0.21,0.47 -0.07,0.73 0.2,0.36 0.73,0.7 1.61,0.7 0.34,0 0.73,-0.06 1.19,-0.17 1.03,-0.27 1.74,-0.59 2.45,-0.92 -0.26,0.43 -0.67,1.07 -1.36,2.03 -0.25,0.34 -0.18,0.62 -0.11,0.76 0.14,0.3 0.52,0.47 1.03,0.47 v 0 c 1.1,0 2.54,-0.77 3.42,-2.44 l -0.57,-0.34 c -0.72,1.37 -1.82,1.98 -2.63,2.08 -0.43,0.04 -0.62,-0.06 -0.59,-0.12 1.36,-1.87 1.72,-2.66 1.82,-2.91 l 0.05,-0.03 -0.56,-0.49 -0.46,0.21 c -0.81,0.4 -1.52,0.74 -2.64,1.03 -1.28,0.34 -1.89,0.01 -2.01,-0.16 0.75,-0.72 2.59,-1.97 3.65,-2.65 -0.19,-0.26 -0.37,-0.52 -0.55,-0.8 -0.64,0.21 -1.4,0.46 -2.2,0.7 -0.89,0.27 -2.55,0.77 -3.2,0.53 -1,-0.35 -1.05,-0.61 -1.05,-0.61 l 0.34,-0.27 c 1.64,-1 3.8,-2.11 5.02,-2.73 l -0.04,-0.11 c -0.08,-0.28 -0.11,-0.57 -0.17,-0.86 -2.19,0.4 -3.45,0.57 -4.75,0.73 l -0.64,0.08 c -1.44,0.18 -1.88,-0.13 -2.37,-0.6 -0.22,-0.2 -0.32,-0.4 -0.29,-0.53 0.01,-0.06 0.13,-0.3 0.85,-0.49 1.69,-0.45 5.33,-1.18 6.96,-1.51 0.01,-0.33 0.01,-0.66 0.03,-0.98 -3.31,0.09 -6.67,0 -7.31,-0.23 -0.74,-0.26 -1.51,-0.98 -1.76,-1.65 l -0.03,-0.49 c 0.06,-0.08 0.33,-0.27 1.39,-0.17 1.64,0.17 3.18,0.22 5.12,0.31 0.87,0.05 1.87,0.09 2.94,0.14 0.07,-0.29 0.14,-0.6 0.23,-0.87 -3.77,-1.64 -5.83,-2.73 -7.09,-3.78 -0.58,-0.49 -1.3,-2.32 -0.99,-2.77 0.1,-0.14 0.49,-0.1 1.18,0.31 1.58,0.9 5.57,2.9 7.77,3.98 0.13,-0.27 0.25,-0.5 0.34,-0.68 C 32.02,20.64 31.55,20.11 31.06,19.6 29.6,18.04 28.09,16.42 27.38,14.98 26.66,13.5 26.85,11.97 27.24,11.7 l 0.64,0.31 0.72,0.78 c 2.16,2.36 7.24,7.89 8.39,8.94 1.56,1.44 2.28,2.66 3.07,5.18 0.14,0.45 0.26,0.98 0.39,1.55 0.57,2.49 1.34,5.91 4.83,7.86 l 0.32,-0.61 c -1.87,-1.05 -2.88,-2.53 -3.53,-4.09 h 0.02 c 0.05,-0.2 1.32,-5.11 8.72,-6.05 l 0.48,0.34 0.39,-0.56 -0.54,-0.37 c -1.03,-1.09 -0.69,-2.17 -0.23,-3 0.15,1.13 0.86,1.84 0.94,1.9 l 2.04,1.47 0.19,-0.1 c 0.08,-0.04 1.82,-1.01 3.26,1.02 l 0.07,0.09 0.1,0.04 c 0.07,0.02 1.9,0.61 3.38,-0.51 -0.17,0.67 -0.57,1.72 -1.52,1.83 l -0.25,0.04 c -0.2,0.01 -0.81,0.06 -1.03,0.5 -0.22,0.45 0.12,0.98 0.23,1.15 0.33,0.51 0.58,1.27 -0.05,1.9 l -0.14,0.13 c -0.36,0.33 -0.9,0.82 -0.71,2.25 0.02,0.19 0.07,0.41 0.11,0.62 0.09,0.41 0.19,0.84 0.06,1.08 -0.18,0.39 -2.35,1.63 -3.2,1.29 -1.75,-0.67 -1.7,-2.87 -1.7,-2.97 L 52.7,33.5 52.5,33.4 c -1.81,-0.92 -1.72,-1.61 -1.61,-2.66 0.05,-0.35 0.09,-0.75 0.06,-1.18 L 50.9,29.2 50.55,29.25 c -0.39,0.05 -0.71,-0.02 -0.94,-0.23 -0.37,-0.31 -0.48,-0.85 -0.49,-0.93 0.02,-0.03 0.24,-0.11 0.7,0.01 0.97,0.25 1.39,0.05 1.47,0.02 l -0.31,-0.61 c 0,0 -0.28,0.11 -0.99,-0.07 -0.57,-0.14 -1.02,-0.11 -1.29,0.12 l -0.25,0.54 c 0,0.16 0.13,0.93 0.69,1.44 0.31,0.27 0.69,0.41 1.12,0.43 -0.01,0.23 -0.04,0.47 -0.06,0.69 -0.12,1.07 -0.25,2.18 1.78,3.27 0.03,0.68 0.27,2.68 2.13,3.41 0.17,0.06 0.37,0.09 0.58,0.09 1.32,0 3.2,-1.17 3.46,-1.72 0.23,-0.45 0.11,-1.01 0,-1.54 l -0.11,-0.56 c -0.13,-1.07 0.19,-1.36 0.5,-1.64 l 0.17,-0.16 c 0.72,-0.74 0.77,-1.74 0.14,-2.76 -0.23,-0.35 -0.2,-0.47 -0.2,-0.47 0,0 0.07,-0.09 0.49,-0.12 l 0.28,-0.04 c 1.53,-0.18 2.03,-1.92 2.16,-2.66 0.09,-0.52 -0.14,-0.71 -0.26,-0.75 l -0.61,0.13 c -1.05,1.04 -2.55,0.75 -2.93,0.65 -1.47,-1.94 -3.27,-1.45 -3.86,-1.21 l -1.68,-1.19 c -0.01,0 -0.71,-0.7 -0.71,-1.75 0,-0.28 -0.15,-0.5 -0.38,-0.56 -0.14,-0.04 -0.49,-0.06 -0.81,0.51 -0.28,0.5 -1.07,1.92 -0.09,3.42 -5.82,0.88 -7.9,4.16 -8.57,5.7 -0.26,-0.81 -0.45,-1.62 -0.63,-2.37 -0.13,-0.58 -0.25,-1.13 -0.4,-1.6 -0.84,-2.67 -1.6,-3.95 -3.27,-5.49 -1.12,-1.03 -6.18,-6.55 -8.35,-8.9 l -0.72,-0.78 c -0.75,-0.81 -1.32,-0.56 -1.53,-0.4 -0.82,0.57 -0.84,2.55 -0.07,4.15 0.75,1.53 2.3,3.18 3.79,4.78 l 0.38,0.41 c -2.2,-1.1 -5.01,-2.51 -6.26,-3.24 -1.02,-0.58 -1.71,-0.62 -2.06,-0.1 -0.59,0.87 0.38,3.09 1.12,3.69 1.18,0.98 2.98,2 6.1,3.38 -0.61,-0.03 -1.19,-0.05 -1.72,-0.08 -1.94,-0.09 -3.47,-0.16 -5.08,-0.3 -1.07,-0.11 -1.69,0.02 -1.99,0.42 -0.22,0.28 -0.24,0.67 -0.07,1.15 0.34,0.81 1.27,1.7 2.19,2.03"
   fill="#2B2523" />

	<path
   inkscape:connector-curvature="0"
   id="path867"
   d="m 61.7,47.02 -0.14,-0.43 -0.13,-0.47 c -0.44,-1.54 -0.87,-3 -1.29,-4.04 -0.48,-1.2 -1.29,-1.94 -2.12,-1.94 h -0.04 c -0.16,0.02 -0.41,0 -0.72,-0.01 -0.65,-0.02 -1.51,-0.05 -2.09,0.02 l -0.25,-0.46 c -0.69,-0.86 -0.56,-1.31 -0.56,-1.32 l -0.62,-0.24 c -0.04,0.07 -0.29,0.8 0.66,1.99 0.77,0.96 0.89,2.65 0.25,3.76 -0.35,0.62 -1.06,1.31 -2.44,1.06 -0.28,-0.05 -0.52,-0.08 -0.71,-0.06 -0.33,-0.33 -0.58,-0.61 -0.65,-0.79 l -0.62,0.28 c 0.38,0.9 3.25,3.19 3.87,3.57 0.35,0.22 0.68,1.53 0.33,2.11 -0.38,0.67 -1.85,2.26 -2.73,3.06 -0.7,0.62 -2.52,0.54 -2.85,0.44 -0.24,-0.07 -1.61,-0.64 -2.76,-1.12 1.11,-0.72 2.22,-1.23 2.43,-1.16 l 0.39,0.28 c 0.2,0.18 0.46,0.42 1,0.45 l 0.05,0.01 c 0.92,0 1.46,-1.83 1.65,-2.62 l 0.08,-0.33 -0.31,-0.09 c -0.05,-0.01 -4.99,-1.43 -5.34,-4.02 l -0.67,0.1 c 0.08,0.53 0.33,1.01 0.64,1.45 -0.58,0.29 -2.99,1.5 -5.96,2.58 -0.76,0.27 -0.89,0.93 -1,1.46 -0.09,0.47 -0.16,0.75 -0.46,0.87 -0.3,0.12 -0.91,-0.1 -1.62,-0.35 -0.66,-0.23 -1.48,-0.53 -2.43,-0.69 -2.4,-0.4 -4.51,0.95 -4.61,1.01 l -0.1,0.1 -0.13,0.18 c -2.18,2.95 -3.36,5.2 -3.52,6.65 -0.16,1.63 0.3,3.05 1.09,4.79 0.28,0.62 0.6,1.14 0.84,1.5 -1.98,0.09 -3.98,0.12 -4.27,0 -0.75,-0.48 -0.31,-1.88 0.02,-2.91 0.94,-3 -0.59,-6.11 -1.12,-7.04 0.5,-0.38 1.54,-1.22 1.85,-1.78 0.2,-0.34 0.8,-1.4 0.06,-2.32 -3.46,-4.22 -0.98,-9.49 -0.95,-9.54 L 23.82,40.76 23.6,40.6 c -2.01,-1.57 -4.78,-1.59 -6.32,-0.04 -1.48,1.52 -1.21,3.96 0.73,6.53 0.61,0.82 0.83,1.8 0.57,2.63 -0.22,0.73 -0.79,1.28 -1.61,1.53 -0.99,0.31 -1.38,1.23 -1.53,1.93 -0.79,-1.22 -0.48,-2.13 -0.15,-3.09 0.09,-0.25 0.17,-0.5 0.24,-0.76 0.14,-0.54 0.07,-0.97 -0.21,-1.28 l -0.37,-0.28 c 0.23,-0.18 0.45,-0.42 0.62,-0.71 0.3,-0.53 0.35,-1.16 0.14,-1.85 -0.11,-0.36 -0.31,-1.01 -0.47,-1.38 -0.69,-1.57 -0.34,-3.46 0.89,-4.7 1.8,-1.82 4.94,-1.89 8.62,-0.18 0.83,0.38 1.39,0.22 2.07,-0.22 l -0.36,-0.58 c -0.6,0.38 -0.91,0.41 -1.43,0.18 -5.61,-2.6 -8.41,-0.64 -9.37,0.31 -1.43,1.44 -1.84,3.65 -1.03,5.47 0.16,0.36 0.37,1.03 0.45,1.3 0.14,0.5 0.12,0.96 -0.08,1.31 -0.36,0.66 -1.17,0.88 -1.18,0.89 l 0.12,0.67 c 0.14,-0.01 0.67,-0.02 0.89,0.23 0.11,0.13 0.13,0.35 0.05,0.65 -0.06,0.24 -0.14,0.48 -0.23,0.72 -0.4,1.19 -0.86,2.55 0.79,4.41 l 0.62,0.69 -0.03,-0.93 c 0,-0.02 -0.03,-1.77 1.15,-2.14 1.03,-0.32 1.76,-1.03 2.05,-1.98 0.33,-1.05 0.08,-2.27 -0.68,-3.27 -1.72,-2.27 -2.01,-4.37 -0.78,-5.62 1.22,-1.25 3.51,-1.26 5.21,-0.07 -0.48,1.2 -2.12,6.03 1.16,10.03 0.3,0.38 0.26,0.84 -0.12,1.54 -0.27,0.48 -1.47,1.43 -1.91,1.75 l -0.26,0.19 0.17,0.27 c 0.02,0.03 2.21,3.54 1.2,6.75 -0.37,1.17 -0.92,2.93 0.27,3.69 0.22,0.15 1.01,0.18 1.97,0.18 1.09,0 2.39,-0.05 3.33,-0.11 l 0.66,-0.04 -0.42,-0.53 c -0.01,0 -0.65,-0.8 -1.13,-1.87 -0.74,-1.65 -1.17,-2.96 -1.03,-4.43 0.09,-0.92 0.76,-2.76 3.38,-6.32 l 0.1,-0.14 c 0.11,-0.07 0.38,-0.21 0.75,-0.37 0.77,1.68 -0.39,5.03 -0.4,5.06 l -0.14,0.39 0.41,0.06 c 0.02,0 2.43,0.59 3.41,4.48 0.1,0.39 0.05,0.81 -0.01,1.22 -0.09,0.71 -0.2,1.52 0.66,2.03 0.23,0.13 1,0.18 1.9,0.18 1.15,0 2.51,-0.06 3.29,-0.12 l 0.59,-0.03 -0.33,-0.5 C 40.48,64.32 40,63.59 39.43,62.52 39.35,62.36 39.19,62.12 38.99,61.8 37.79,59.86 35,55.39 36.15,51.51 l 0.6,0.2 c 0.91,0.33 1.56,0.56 2.09,0.34 0.66,-0.26 0.78,-0.88 0.87,-1.37 0.1,-0.52 0.18,-0.82 0.56,-0.96 3.46,-1.25 6.16,-2.67 6.18,-2.68 v -0.01 c 1.36,1.39 3.59,2.23 4.42,2.5 -0.28,1 -0.71,1.78 -0.92,1.78 h -0.01 c -0.3,-0.02 -0.41,-0.11 -0.58,-0.28 -0.14,-0.13 -0.31,-0.29 -0.6,-0.41 -0.74,-0.3 -2.76,1.01 -3.58,1.59 l -0.52,0.35 0.57,0.24 c 0.31,0.13 3,1.28 3.42,1.4 l 0.05,0.01 h -3.46 l 0.11,7.42 c 0.01,0.07 0.17,1.73 1.23,2.9 1.81,2 3.33,3.02 4.52,3.02 h 0.23 c 1.17,0 2.7,-1.02 4.52,-3.02 1.07,-1.18 1.22,-2.84 1.23,-2.92 l 0.1,-7.4 H 50.6 c 0.57,-0.09 1.13,-0.26 1.53,-0.6 0.95,-0.85 2.44,-2.48 2.87,-3.21 0.5,-0.86 0.17,-2.6 -0.57,-3.06 -0.38,-0.23 -1.32,-0.98 -2.15,-1.72 l 0.43,0.04 c 0.92,0 1.7,-0.39 2.24,-1.09 v 0.03 c 0.76,-0.03 2.13,-0.04 2.61,-0.04 0.37,0.55 1.68,2.68 0.5,4.14 -0.15,0.19 -0.21,0.41 -0.17,0.67 0.18,1.13 2.58,2.68 3.05,2.98 l 0.44,0.29 0.07,-0.54 c 0,-0.01 0.15,-1.21 0.46,-2.05 0.41,-1.07 0.05,-2.2 -0.21,-3.03 M 38.41,62.2 c 0.19,0.3 0.33,0.52 0.41,0.67 0.3,0.57 0.57,1.04 0.77,1.36 -1.94,0.11 -3.94,0.13 -4.23,0 -0.45,-0.26 -0.42,-0.62 -0.33,-1.35 0.06,-0.44 0.13,-0.95 -0.01,-1.48 -0.82,-3.2 -2.63,-4.5 -3.59,-4.87 0.29,-0.95 0.98,-3.57 0.29,-5.19 0.74,-0.24 1.7,-0.43 2.7,-0.26 0.39,0.07 0.73,0.16 1.07,0.26 -1.24,4.17 1.66,8.84 2.92,10.86 m 18.1,-7.28 -0.09,6.68 c -0.01,0.02 -0.14,1.5 -1.05,2.49 -2.11,2.32 -3.36,2.81 -4.02,2.81 h -0.23 c -0.95,0 -2.38,-1 -4.02,-2.82 -0.91,-0.99 -1.05,-2.45 -1.05,-2.45 l -0.11,-6.71 c 0,0 10.57,0 10.57,0 z m 4.77,-5.1 c -0.2,0.56 -0.33,1.22 -0.41,1.67 -1.02,-0.69 -2.22,-1.69 -2.31,-2.22 l 0.02,-0.12 C 60.3,47.06 58.1,44.14 58.01,44.02 l -0.1,-0.13 h -0.17 c -0.06,0 -1.43,0 -2.4,0.03 0.43,-0.95 0.48,-2.1 0.16,-3.1 0.52,-0.03 1.2,-0.01 1.73,0 0.27,0.01 0.5,0.02 0.66,0.02 h 0.13 c 0.54,0 1.13,0.59 1.49,1.51 0.42,1.02 0.83,2.45 1.28,3.98 l 0.13,0.47 0.14,0.45 c 0.24,0.75 0.54,1.71 0.22,2.57"
   fill="#2B2523" />

	<path
   inkscape:connector-curvature="0"
   id="path869"
   d="m 47.85,59.5 0.09,0.1 c 0.27,0.33 0.65,0.79 1.08,0.79 h 0.03 c 0.4,0 0.75,-0.38 1.09,-0.81 l 0.07,-0.09 c 0.27,-0.32 0.31,-0.76 0.32,-0.83 l 0.03,-1.94 H 47.5 l 0.03,1.96 c 0.01,0.05 0.04,0.49 0.32,0.82 m 2.02,-2.1 -0.02,1.23 -0.15,0.41 -0.07,0.09 -0.58,0.56 H 49.02 L 48.45,59.14 48.36,59.03 48.2,58.64 48.18,57.39 Z"
   fill="#2B2523" />

	<path
   inkscape:connector-curvature="0"
   id="path871"
   d="m 52.25,59.5 0.08,0.09 c 0.27,0.34 0.64,0.8 1.08,0.8 h 0.03 c 0.4,0 0.74,-0.39 1.09,-0.82 l 0.06,-0.07 c 0.29,-0.33 0.32,-0.77 0.32,-0.84 l 0.03,-1.94 h -3.06 l 0.02,1.97 c 0.03,0.05 0.08,0.48 0.35,0.81 m 2.02,-2.1 -0.02,1.22 -0.16,0.42 -0.07,0.09 -0.58,0.56 H 53.41 L 52.84,59.14 52.76,59.03 52.6,58.64 52.58,57.39 Z"
   fill="#2B2523" />

	<path
   inkscape:connector-curvature="0"
   id="path873"
   d="m 37.31,18.35 c -0.25,-0.52 -0.22,-1.22 -0.06,-1.59 l 0.13,-0.2 c 0.02,0 0.19,0.02 0.63,0.56 0.91,1.15 2.17,2.47 3.62,3.98 0.31,-0.17 0.61,-0.27 0.92,-0.38 -1.56,-3.28 -2.14,-5.03 -2.46,-6.16 -0.2,-0.73 0.02,-1.23 0.28,-1.62 0.3,-0.48 0.44,-0.52 0.44,-0.52 0,0 0.15,0.08 0.34,0.76 0.45,1.59 2.35,5.79 2.96,7.12 0.34,-0.05 0.64,-0.09 0.91,-0.1 -0.01,-0.65 -0.05,-1.42 -0.08,-2.25 -0.1,-2.02 -0.21,-4.32 0.08,-5.49 0.26,-1.1 1.02,-1.87 1.34,-1.87 h 0.02 c 0.07,0.01 0.13,0.18 0.14,0.41 0.02,0.49 0.1,1.77 0.19,3.26 0.17,2.6 0.37,5.84 0.38,6.67 0,0.92 0.03,1.54 0.07,2.25 0.02,0.29 0.02,0.61 0.04,0.97 l 0.67,-0.03 c -0.01,-0.36 -0.03,-0.67 -0.04,-0.97 -0.04,-0.7 -0.07,-1.32 -0.07,-2.22 -0.01,-0.85 -0.22,-4.1 -0.38,-6.71 -0.1,-1.48 -0.17,-2.75 -0.2,-3.24 -0.03,-0.91 -0.53,-1.05 -0.75,-1.07 -0.75,-0.06 -1.77,1.07 -2.08,2.39 -0.31,1.26 -0.2,3.62 -0.1,5.69 0.02,0.39 0.03,0.76 0.05,1.13 -0.8,-1.77 -2.16,-4.86 -2.51,-6.12 -0.15,-0.53 -0.38,-1.17 -0.89,-1.24 -0.47,-0.06 -0.82,0.37 -1.11,0.83 -0.29,0.45 -0.64,1.18 -0.36,2.18 0.28,1.03 0.78,2.54 1.97,5.15 -1.13,-1.2 -2.13,-2.26 -2.88,-3.2 -0.33,-0.41 -0.78,-0.87 -1.26,-0.8 -0.27,0.04 -0.49,0.24 -0.65,0.6 -0.28,0.61 -0.25,1.51 0.05,2.16 l 0.18,0.33 c 0.15,0.09 0.85,0.52 1.6,1.12 -0.57,-0.87 -1.02,-1.55 -1.13,-1.78"
   fill="#2B2523" />

	<path
   inkscape:connector-curvature="0"
   id="path875"
   d="m 55.85,28.45 c 0,0 -0.42,0.24 -1,-0.54 -0.48,-0.67 -0.74,-1.01 -1.96,-0.14 0,0 0.87,-0.19 1.44,0.39 1.05,1.08 1.52,0.29 1.52,0.29"
   fill="#2B2523" />

	<path
   inkscape:connector-curvature="0"
   id="path877"
   d="m 52.43,30.23 c 0,0 0.13,0.28 0.37,0.52 0.01,-0.34 0.25,-0.62 0.56,-0.62 0.31,0 0.58,0.29 0.58,0.65 l -0.2,0.46 c 0.37,0.2 0.77,0.53 0.77,0.53 0,0 0.1,-0.42 -0.09,-1.43 -0.14,-0.77 -0.57,-0.97 -1.04,-0.94 -0.73,0.06 -0.95,0.83 -0.95,0.83"
   fill="#2B2523" />

	<path
   inkscape:connector-curvature="0"
   id="path879"
   d="m 49.86,63.33 c 0,0.04 0.04,0.48 0.32,0.81 l 0.09,0.1 c 0.28,0.33 0.64,0.77 1.07,0.77 h 0.03 c 0.43,0 0.81,-0.46 1.08,-0.8 l 0.07,-0.08 c 0.27,-0.32 0.32,-0.76 0.33,-0.82 l 0.02,-1.95 H 49.8 Z m 2.34,-1.28 -0.02,1.22 -0.17,0.42 -0.07,0.09 -0.57,0.55 H 51.34 L 50.78,63.8 50.69,63.68 50.54,63.29 50.51,62.04 Z"
   fill="#2B2523" />

	<path
   inkscape:connector-curvature="0"
   id="path881"
   d="m 55.22,35.49 c 0.03,-0.03 0.5,-0.7 0.22,-1.44 -0.11,-0.3 -0.3,-0.43 -0.43,-0.48 -0.34,-0.13 -0.7,0.04 -0.73,0.06 l 0.21,0.41 0.35,-0.04 0.17,0.21 c 0.19,0.51 -0.16,1 -0.16,1.01 z"
   fill="#2B2523" />

</g>

</svg>
